<svg width="103" height="49" viewBox="0 0 103 49" fill="none" xmlns="http://www.w3.org/2000/svg">
<path d="M61.3671 28.2589C60.7038 27.489 59.7278 26.953 58.464 26.6653L56.6215 26.282C55.8155 26.0934 55.7223 25.7676 55.7223 25.539C55.7223 24.7607 56.6478 24.6767 57.0457 24.6767C58.0341 24.6767 58.9369 25.0072 60.1618 25.8175L60.2873 25.9005L61.8258 21.7948L61.7343 21.7433C60.4352 21.0123 59.309 20.6196 58.0585 20.483C58.9341 20.4401 59.9583 20.3024 60.7587 20.1136L60.7794 20.1091C60.9309 20.0762 61.0403 20.0524 61.1526 20.0174C61.255 19.9855 61.3577 19.9448 61.4961 19.8811L61.5648 19.8495L61.7306 13.8742L61.5236 14.0547C60.4328 15.0058 59.5973 15.3595 58.4409 15.3595C56.694 15.3595 55.2727 13.9499 55.2727 12.2174C55.2727 10.4824 56.6435 9.12326 58.3935 9.12326C59.4215 9.12326 60.3288 9.53788 61.5252 10.5545L61.7307 10.7291L61.5646 4.63323L61.4861 4.60537C60.4039 4.22095 59.062 4.00929 57.7078 4.00929C57.6839 4.00929 57.6602 4.00993 57.6363 4.01014L62.0853 2.49845L61.5411 0L57.2112 1.53597L52.8813 0L52.3365 2.49845L56.8962 4.04757C54.968 4.22978 53.2002 5.06064 51.8525 6.43325C50.3191 7.99485 49.4747 10.1087 49.4747 12.3853C49.4747 14.5903 50.3013 16.638 51.8022 18.1513C53.0702 19.4298 54.7165 20.2227 56.5153 20.4378C52.7239 20.6161 50.0187 22.9987 50.0187 26.2351C50.0187 27.3279 50.3758 28.3001 51.0512 29.0466C51.7241 29.7901 52.7009 30.2953 53.8752 30.5075L55.5328 30.8198C56.4529 30.9706 56.571 31.3469 56.571 31.6579C56.571 32.2999 55.8359 32.5923 55.1529 32.5923C54.0915 32.5923 52.7612 32.1105 51.8425 31.3933L51.2259 30.9121L49.4742 35.4507L49.576 35.4995C51.532 36.4385 53.5356 36.9146 55.5313 36.9146C57.4661 36.9146 59.2129 36.3446 60.4498 35.3096C61.6876 34.274 62.3692 32.8153 62.3692 31.2022C62.3692 30.0212 62.0321 29.0309 61.3671 28.2589Z" fill="#E20714"/>
<path fill-rule="evenodd" clip-rule="evenodd" d="M64.1479 24.9108V40.8922H65.7325V34.7012C66.7735 36.2374 68.3107 37.0289 70.2978 37.0289C73.6803 37.0289 76.4952 34.2451 76.4952 30.8859C76.4952 27.4305 73.7278 24.623 70.3216 24.623C68.3585 24.623 66.6787 25.4626 65.6381 26.9507V24.9108H64.1479ZM70.3452 25.9909C72.9234 25.9909 75.0055 28.1746 75.0055 30.8377C75.0055 33.5254 72.9471 35.6614 70.3922 35.6614C67.6011 35.6614 65.614 33.5975 65.614 30.7419C65.614 28.1021 67.7197 25.9909 70.3452 25.9909Z" fill="white"/>
<path fill-rule="evenodd" clip-rule="evenodd" d="M83.8774 24.623C80.5656 24.623 77.7508 27.4305 77.7508 30.7419C77.7508 34.2451 80.447 37.0289 83.8774 37.0289C87.118 37.0289 89.9329 34.1733 89.9329 30.8859C89.9329 27.4545 87.1888 24.623 83.8774 24.623ZM83.8774 25.9909C86.3611 25.9909 88.4427 28.1503 88.4427 30.7656C88.4427 33.5013 86.4319 35.6614 83.8774 35.6614C81.2751 35.6614 79.2409 33.5254 79.2409 30.7901C79.2409 28.1746 81.3463 25.9909 83.8774 25.9909Z" fill="white"/>
<path d="M91.9075 36.7412H93.4921V29.8542C93.4921 28.5342 93.7999 27.7903 94.6982 27.0465C95.3371 26.4947 95.8104 26.3267 96.8272 26.2305V24.623C95.0064 24.7428 94.131 25.2466 93.3974 26.6144V24.9108H91.9075V36.7412Z" fill="white"/>
<path d="M98.695 36.7412H100.185V26.2786H103V24.9108H100.185V20.7356H98.695V24.9108H96.2587V26.2786H98.695V36.7412Z" fill="white"/>
<path fill-rule="evenodd" clip-rule="evenodd" d="M64.1479 20.3234H65.6381V8.4933H64.1479V20.3234ZM64.1479 7.02976H65.6381V4.31812H64.1479V7.02976Z" fill="white"/>
<path fill-rule="evenodd" clip-rule="evenodd" d="M68.2916 20.3234H69.7817V18.2839C70.8223 19.7716 72.5021 20.6114 74.4652 20.6114C77.8718 20.6114 80.6392 17.804 80.6392 14.3486C80.6392 10.9891 77.8243 8.20558 74.4418 8.20558C72.4547 8.20558 70.8939 8.99728 69.8761 10.5331V4.31812H68.2916V20.3234ZM74.5362 9.57319C77.0912 9.57319 79.1489 11.7089 79.1489 14.3965C79.1489 17.06 77.0674 19.2435 74.5126 19.2435C71.7926 19.2435 69.7585 17.1321 69.7585 14.3486C69.7585 11.637 71.8162 9.57319 74.5362 9.57319Z" fill="white"/>
<path fill-rule="evenodd" clip-rule="evenodd" d="M94.2657 8.49353H92.776V10.5814C91.6876 9.02157 90.1026 8.20581 88.1869 8.20581C84.6385 8.20581 81.9181 10.9172 81.9181 14.4686C81.9181 17.8521 84.757 20.6116 88.2344 20.6116C90.1026 20.6116 91.6401 19.8197 92.776 18.2601V20.3237H94.2657V8.49353ZM88.1395 9.57342C90.7414 9.57342 92.776 11.7332 92.776 14.4927C92.776 17.0363 90.6702 19.2438 88.2102 19.2438C85.5377 19.2438 83.4086 17.0602 83.4086 14.3247C83.4086 11.7811 85.6084 9.57342 88.1395 9.57342Z" fill="white"/>
<path d="M23.4522 40.0038H62.9244V39.5752H23.4522V40.0038Z" fill="white"/>
<path d="M66.8022 39.5752V40.0038H100.873V39.5752H66.8022Z" fill="white"/>
<path d="M29.8159 22.1085L29.7839 21.8777L29.6147 22.0353C29.6062 22.0432 28.7608 22.8313 28.0068 23.5627C26.9891 24.5502 26.3276 25.2366 26.0409 25.6029C25.4288 26.3843 24.7674 26.7039 23.53 25.7235C22.1846 24.6583 19.3386 22.7357 19.31 22.7164L19.2199 22.6556L12.4647 30.8451L9.75264 31.9118L9.91736 33.9471L0 45.917L0.871668 49L16.7077 34.7971C17.393 34.8301 24.9904 35.1931 27.793 35.275C29.2414 35.3177 30.2038 35.0489 30.7352 34.4542C31.178 33.9587 31.3239 33.2476 31.1943 32.2162C30.9864 30.5613 29.8275 22.1928 29.8159 22.1085Z" fill="white"/>
<path d="M16.3672 15.7224C16.4679 15.7224 16.5742 15.7188 16.6842 15.7103C17.3044 15.6618 18.1696 15.4402 18.7697 14.6603C19.2158 14.0807 19.8326 13.4156 20.429 12.7723C20.5311 12.6622 20.6322 12.5531 20.7313 12.4458C21.4017 11.7194 22.018 11.032 22.1939 10.605C22.2907 10.3697 22.5408 10.2391 22.7336 10.1711C23.2011 10.0061 23.773 10.0401 24.0138 10.1755C24.2303 10.2971 25.051 10.5352 26.523 10.9033C27.5911 11.1702 28.6718 11.4215 28.6826 11.4239L28.7408 11.4375L33.603 7.34205L21.8253 5.6709L15.1496 15.5465L15.4856 15.6298C15.4899 15.6309 15.8586 15.7224 16.3672 15.7224Z" fill="white"/>
<path d="M50.012 18.9379L49.9636 18.8662L49.8809 18.8889C49.7995 18.9112 41.7384 21.1229 41.1371 21.2976C40.886 21.3708 40.7302 21.3713 40.6163 21.2994C40.4923 21.2213 40.3933 21.0392 40.3049 20.7262C40.2475 20.5232 40.1476 19.8306 39.9981 17.6843C39.9217 16.5897 39.8572 15.4786 39.8146 14.7434C39.8034 14.5514 39.794 14.3889 39.7865 14.2644C39.7133 13.0387 38.917 11.1749 37.8484 10.3542C36.7091 9.47917 36.0031 9.31446 34.5792 10.5604C33.1966 11.7698 32.0454 12.764 30.8662 13.6327C30.2516 14.0855 29.8929 14.5884 29.7696 15.1703C29.6669 15.6546 29.7146 16.1849 29.929 16.9436C30.1064 17.571 30.591 17.9594 31.3304 18.067C32.0338 18.1692 32.7032 17.99 32.8303 17.953C33.3041 17.8152 33.9244 18.0564 34.166 18.9116C34.3054 19.4047 34.7338 20.8017 35.1479 22.1527C35.5642 23.5103 35.9946 24.9142 36.1338 25.4069C36.2276 25.7384 36.4342 26.3636 36.7635 26.8259C37.0143 27.1792 37.2912 27.3613 37.5669 27.3613C37.6727 27.3613 37.7785 27.3344 37.8824 27.28C38.1276 27.1515 39.7113 26.3541 41.545 25.4308C44.0145 24.1874 47.0878 22.64 48.4624 21.936C49.4537 21.4284 50.0417 20.834 50.21 20.1692C50.3743 19.5198 50.0739 19.0296 50.012 18.9379Z" fill="white"/>
<path d="M43.6192 9.98367C43.986 9.98364 44.359 9.93235 44.7288 9.82476C45.7637 9.52376 46.6211 8.83193 47.143 7.8767C47.6649 6.92149 47.7888 5.8172 47.492 4.76731C46.8792 2.60018 44.6428 1.34258 42.5062 1.964C41.4713 2.26502 40.6139 2.95685 40.092 3.91209C39.5701 4.86726 39.4462 5.97152 39.743 7.02138C40.2497 8.8136 41.8666 9.98374 43.6192 9.98367Z" fill="white"/>
<path fill-rule="evenodd" clip-rule="evenodd" d="M23.7387 48.2996H24.2632L25.0085 46.5642H27.3654L28.0953 48.2996H28.6503L26.4758 43.1553H25.9056L23.7387 48.2996ZM25.1983 46.1013L26.1945 43.7413L27.1677 46.1013H25.1983Z" fill="white"/>
<path d="M36.4994 48.2996H37.0087V43.6176H38.1719V43.1553H35.3359V43.6176H36.4994V48.2996Z" fill="white"/>
<path d="M45.734 48.2996H46.2433V45.8854H48.8664V48.2996H49.3759V43.1553H48.8664V45.4226H46.2433V43.1553H45.734V48.2996Z" fill="white"/>
<path d="M57.4096 48.2996H60.0172V47.8367H57.9191V43.1553H57.4096V48.2996Z" fill="white"/>
<path d="M67.6266 48.2996H70.4023V47.8367H68.1365V45.9313H70.3261V45.4686H68.1365V43.6176H70.4023V43.1553H67.6266V48.2996Z" fill="white"/>
<path d="M78.9403 48.2996H79.4498V43.6176H80.6129V43.1553H77.7769V43.6176H78.9403V48.2996Z" fill="white"/>
<path d="M88.1748 48.2996H88.6843V43.1553H88.1748V48.2996Z" fill="white"/>
<path d="M100.835 46.95C100.356 47.59 99.7477 47.9297 99.071 47.9297C97.9232 47.9297 96.9196 46.9116 96.9196 45.7391C96.9196 44.551 97.9078 43.5254 99.0486 43.5254C99.7551 43.5254 100.424 43.8877 100.812 44.4737H101.375C101.056 43.695 100.029 43.0625 99.079 43.0625C97.5659 43.0625 96.4101 44.235 96.4101 45.7543C96.4101 47.212 97.5963 48.392 99.071 48.392C100.029 48.392 100.926 47.8368 101.398 46.95H100.835Z" fill="white"/>
</svg>
